<svg width="32" height="32" viewBox="0 0 32 32" fill="none" xmlns="http://www.w3.org/2000/svg">
<path d="M4.19657 13.7887C4.11079 13.7057 4.04949 13.5987 4.01992 13.4803C3.99035 13.3619 3.99376 13.2371 4.02974 13.1206C4.06572 13.0042 4.13276 12.901 4.22293 12.8233C4.3131 12.7456 4.42261 12.6966 4.5385 12.6822L11.8705 11.7704C11.9744 11.7577 12.0734 11.7172 12.1581 11.6528C12.2428 11.5885 12.3103 11.5024 12.3541 11.4028L15.4462 4.37205C15.4951 4.26098 15.5732 4.16691 15.6715 4.10097C15.7698 4.03504 15.884 4 16.0006 4C16.1173 4 16.2315 4.03504 16.3297 4.10097C16.428 4.16691 16.5062 4.26098 16.555 4.37205L19.6471 11.4028C19.6907 11.5023 19.758 11.5883 19.8425 11.6527C19.9269 11.717 20.0258 11.7576 20.1295 11.7704L27.4615 12.6822C27.5774 12.6966 27.6869 12.7456 27.7771 12.8233C27.8672 12.901 27.9343 13.0042 27.9703 13.1206C28.0062 13.2371 28.0096 13.3619 27.9801 13.4803C27.9505 13.5987 27.8892 13.7057 27.8034 13.7887L22.3838 19.0457C22.3074 19.1202 22.2505 19.2138 22.2184 19.3178C22.1864 19.4219 22.1802 19.5328 22.2006 19.64L23.6379 27.2342C23.6608 27.3543 23.6504 27.4787 23.6079 27.5928C23.5654 27.7069 23.4926 27.8057 23.3981 27.8777C23.3036 27.9497 23.1914 27.9918 23.0749 27.9989C22.9583 28.0061 22.8422 27.978 22.7404 27.9181L16.2986 24.1363C16.2076 24.0828 16.105 24.0547 16.0006 24.0547C15.8963 24.0547 15.7937 24.0828 15.7026 24.1363L9.25963 27.9168C9.15789 27.9766 9.04196 28.0046 8.92553 27.9975C8.8091 27.9903 8.69705 27.9484 8.60263 27.8766C8.50822 27.8048 8.43539 27.7062 8.39275 27.5923C8.35012 27.4785 8.33947 27.3542 8.36205 27.2342L9.80062 19.64C9.82099 19.5328 9.81486 19.4219 9.78279 19.3178C9.75073 19.2138 9.6938 19.1202 9.61744 19.0457L4.19657 13.7887Z" stroke="#0B0B0B" stroke-width="2.66667" stroke-linecap="round" stroke-linejoin="round"/>
</svg>
